 <svg  version="1.0" xmlns="http://www.w3.org/2000/svg"  width="300.000000pt" height="231.000000pt" viewBox="0 0 300.000000 231.000000"  preserveAspectRatio="xMidYMid meet">  <g transform="translate(0.000000,231.000000) scale(0.100000,-0.100000)" fill="#ee913a" stroke="none"> <path d="M1986 2170 c-29 -63 -33 -66 -114 -73 -23 -2 -45 -6 -48 -9 -2 -3 16 -23 42 -44 45 -38 46 -39 41 -89 -3 -27 -8 -58 -12 -67 -10 -24 8 -23 30 2 22 25 17 120 -8 148 -22 25 -21 32 4 32 12 0 38 17 59 38 l37 37 30 -32 c17 -18 44 -36 61 -39 l31 -6 -24 -33 c-16 -20 -25 -45 -25 -68 0 -26 -4 -37 -15 -37 -8 0 -15 -4 -15 -9 0 -10 70 -54 77 -47 2 2 -3 30 -11 62 l-15 59 50 44 c27 24 48 46 45 49 -3 3 -27 7 -53 10 -67 6 -79 15 -109 77 -14 30 -27 55 -28 55 -2 0 -15 -27 -30 -60z"/> <path d="M1978 1908 c-8 -7 -33 -40 -56 -73 -22 -33 -71 -90 -110 -128 -105 -101 -201 -138 -294 -114 -70 18 -87 20 -147 20 -66 -1 -70 -2 -166 -49 -72 -35 -189 -147 -263 -253 -29 -41 -52 -77 -52 -81 0 -4 12 -12 26 -19 26 -11 30 -9 90 57 99 109 200 166 315 180 56 7 72 24 29 31 -74 10 -233 -58 -321 -137 -27 -24 -49 -41 -49 -37 0 18 126 157 172 191 115 83 218 102 361 67 57 -13 70 -14 77 -3 7 11 13 11 32 -2 64 -42 140 -156 110 -166 -15 -5 -16 -110 -2 -132 7 -11 10 -1 12 35 3 77 4 87 15 127 13 43 66 125 124 188 75 83 145 203 165 283 6 25 4 27 -23 27 -16 0 -36 -6 -45 -12z m2 -84 c0 -18 -65 -117 -115 -174 -30 -36 -70 -86 -87 -112 -35 -54 -49 -59 -68 -23 -7 14 -17 25 -22 25 -24 0 -1 29 48 60 57 36 167 141 206 197 21 30 38 42 38 27z"/> <path d="M1484 1841 c-62 -38 -78 -85 -49 -141 19 -38 63 -60 115 -60 111 0 165 113 89 186 -38 36 -110 44 -155 15z m117 -32 c48 -25 43 -96 -9 -123 -54 -28 -113 -1 -127 56 -14 57 75 100 136 67z"/> <path d="M2090 1609 c83 -39 108 -54 138 -82 56 -53 77 -102 76 -182 0 -283 -384 -613 -870 -747 -127 -35 -125 -50 4 -24 114 23 276 78 394 134 157 74 269 152 389 271 90 90 112 119 150 195 41 83 43 94 44 171 0 77 -2 87 -30 127 -54 76 -152 128 -272 142 -42 5 -45 5 -23 -5z m238 -116 c78 -77 82 -177 11 -310 -43 -80 -161 -223 -183 -223 -6 0 -4 6 4 13 33 25 114 151 141 217 49 121 48 190 -6 313 -10 25 1 21 33 -10z"/> <path d="M1380 1410 c0 -159 -149 -453 -375 -738 -2 -2 -24 2 -51 9 -107 26 -203 93 -235 164 -23 49 -24 137 -4 195 8 24 13 45 11 47 -7 7 -64 -92 -80 -140 -54 -163 38 -298 241 -353 57 -15 270 -20 338 -9 238 41 494 141 676 266 50 35 126 97 168 137 77 75 74 78 -9 11 -83 -67 -194 -136 -307 -193 -62 -31 -118 -56 -125 -56 -7 1 8 20 33 43 26 23 75 74 109 112 135 150 135 193 3 259 -43 21 -53 31 -53 52 0 53 -57 132 -120 164 -45 23 -124 49 -177 59 l-43 8 0 -37z m142 -24 c17 -9 35 -16 40 -16 12 0 33 -17 84 -70 30 -31 44 -54 44 -73 0 -41 26 -74 81 -104 54 -29 68 -57 48 -95 -11 -22 -75 -98 -158 -188 -23 -25 -45 -58 -49 -75 -8 -31 -36 -50 -85 -59 -33 -6 -36 -12 45 89 64 81 118 173 118 202 0 39 -86 93 -150 93 -17 0 -43 -6 -58 -14 -25 -13 -114 -106 -213 -221 -19 -22 -50 -55 -70 -75 -20 -19 -48 -51 -63 -71 l-26 -36 20 -25 c10 -14 16 -28 13 -32 -11 -11 -124 -6 -207 9 -43 7 -102 26 -132 40 -61 30 -124 97 -124 133 0 22 5 19 46 -27 53 -59 187 -131 245 -131 47 0 69 17 137 113 131 181 192 281 235 384 54 129 69 182 76 262 1 17 56 10 103 -13z m100 -357 c21 -11 38 -25 38 -33 0 -26 -113 -183 -202 -280 -12 -13 -49 -25 -120 -37 -97 -17 -198 -25 -198 -14 0 2 24 28 53 57 30 29 87 91 128 138 41 46 100 111 131 144 55 56 58 58 95 51 20 -3 54 -15 75 -26z"/> <path d="M243 445 c-23 -16 -34 -47 -23 -65 4 -7 28 -15 54 -17 30 -4 46 -10 46 -19 0 -16 -55 -19 -65 -4 -3 6 -17 10 -31 10 -21 0 -25 -4 -22 -22 4 -28 52 -43 102 -34 43 8 66 29 66 62 0 24 -12 30 -74 36 -16 2 -32 9 -34 17 -4 11 7 13 57 7 63 -7 74 -1 45 28 -20 20 -93 21 -121 1z"/> <path d="M416 448 c-2 -7 -9 -38 -14 -68 -6 -30 -12 -62 -14 -70 -2 -9 5 -15 20 -16 15 -1 24 5 27 20 2 11 8 39 13 61 l9 40 17 -37 c9 -21 23 -38 30 -38 8 0 28 17 46 38 l31 37 -5 -32 c-3 -18 -9 -47 -12 -64 -6 -28 -5 -30 17 -27 20 3 25 12 34 63 6 33 15 70 19 83 7 20 4 22 -28 22 -28 0 -40 -7 -62 -35 -30 -39 -39 -38 -47 5 -6 27 -10 30 -42 30 -20 0 -37 -6 -39 -12z"/> <path d="M668 381 c-27 -43 -48 -82 -48 -85 0 -13 41 -5 46 9 4 10 20 15 49 15 29 0 45 -5 49 -15 3 -8 17 -15 31 -15 22 0 25 4 20 20 -3 10 -12 47 -19 82 -12 62 -13 63 -47 66 -33 3 -36 0 -81 -77z m84 9 c5 -36 2 -40 -29 -40 -22 0 -23 0 -6 35 20 43 29 44 35 5z"/> <path d="M851 398 c-6 -35 -14 -73 -17 -85 -5 -20 -2 -23 20 -23 21 0 26 5 26 26 0 23 3 25 38 22 32 -3 37 -6 34 -26 -3 -20 0 -23 20 -20 19 2 23 9 23 38 -1 19 5 41 12 48 16 17 17 54 1 70 -7 7 -40 12 -79 12 l-67 0 -11 -62z m117 5 c-2 -13 -14 -19 -40 -21 -32 -3 -36 -1 -31 17 7 28 76 31 71 4z"/> <path d="M1040 440 c0 -15 7 -20 25 -20 14 0 25 -1 25 -2 0 -2 -7 -28 -15 -58 -19 -71 -19 -70 9 -70 21 0 26 7 35 50 6 28 11 57 11 65 0 8 13 15 32 17 22 2 34 9 36 21 3 15 -6 17 -77 17 -74 0 -81 -2 -81 -20z"/> <path d="M1270 440 c-21 -21 -27 -55 -10 -65 5 -3 28 -9 51 -13 22 -4 40 -11 40 -17 -2 -11 -55 -11 -89 0 -21 7 -23 5 -20 -16 7 -53 130 -50 156 4 18 38 2 57 -49 57 -21 0 -41 5 -45 11 -9 14 16 31 36 23 33 -13 80 -16 80 -6 0 43 -112 60 -150 22z"/> <path d="M1477 449 c-42 -25 -62 -114 -30 -140 9 -8 37 -14 63 -14 57 0 85 21 102 76 9 32 8 42 -6 64 -14 21 -24 25 -64 25 -26 0 -55 -5 -65 -11z m86 -64 c-4 -56 -75 -77 -81 -24 -4 34 23 61 57 57 22 -3 26 -7 24 -33z"/> <path d="M1656 448 c-2 -7 -9 -38 -14 -68 -6 -30 -13 -62 -16 -70 -5 -12 5 -15 61 -15 67 0 83 6 83 34 0 11 -10 12 -46 7 l-46 -6 6 33 c20 92 20 97 -3 97 -12 0 -23 -6 -25 -12z"/> <path d="M1795 395 c-4 -35 -5 -71 -2 -79 9 -23 89 -31 125 -12 31 16 44 44 58 119 6 35 5 37 -19 37 -22 0 -25 -5 -31 -50 -7 -53 -26 -80 -57 -80 -27 0 -34 25 -22 82 l10 48 -28 0 c-26 0 -28 -2 -34 -65z"/> <path d="M1997 440 c-4 -17 0 -20 24 -20 32 0 32 0 20 -32 -4 -13 -11 -40 -15 -60 -6 -36 -5 -38 18 -38 25 0 26 1 42 93 5 33 10 37 35 37 22 0 29 5 29 20 0 18 -7 20 -74 20 -65 0 -74 -2 -79 -20z"/> <path d="M2170 433 c0 -16 -7 -52 -14 -80 l-14 -53 28 0 c25 0 28 4 33 48 3 26 9 62 13 80 6 30 5 32 -20 32 -22 0 -26 -5 -26 -27z"/> <path d="M2265 437 c-33 -28 -46 -105 -22 -125 22 -19 78 -25 109 -13 54 21 82 107 47 142 -28 28 -100 26 -134 -4z m102 -34 c11 -29 -19 -68 -52 -68 -25 0 -31 5 -33 26 -2 15 4 34 13 43 21 21 64 21 72 -1z"/> <path d="M2442 398 c-6 -35 -14 -73 -17 -84 -6 -18 -2 -22 18 -21 23 0 26 4 32 58 4 33 10 59 14 59 4 0 14 -26 22 -57 15 -58 15 -58 54 -58 l38 0 17 83 16 82 -23 0 c-19 0 -24 -8 -34 -60 -6 -33 -15 -58 -19 -55 -3 2 -13 29 -20 60 -13 54 -14 55 -50 55 l-37 0 -11 -62z"/> <path d="M2669 439 c-32 -32 -22 -62 26 -73 62 -13 67 -15 60 -26 -8 -13 -62 -13 -70 0 -8 13 -42 13 -50 0 -3 -5 3 -18 15 -30 36 -36 133 -22 149 22 14 36 -4 58 -47 58 -43 0 -71 13 -53 25 7 4 34 4 61 0 39 -5 50 -4 50 7 0 26 -24 38 -72 38 -35 0 -54 -6 -69 -21z"/> <path d="M551 160 c-6 -28 -11 -53 -11 -56 0 -3 24 -4 53 -2 48 3 52 5 52 28 0 14 4 31 9 39 13 19 -19 41 -60 41 -31 0 -33 -3 -43 -50z m79 15 c0 -10 -10 -15 -30 -15 -22 0 -28 4 -24 15 4 8 17 15 30 15 15 0 24 -6 24 -15z m-5 -45 c-3 -5 -20 -10 -36 -10 -18 0 -28 4 -24 10 3 6 20 10 36 10 18 0 28 -4 24 -10z"/> <path d="M685 198 c-2 -7 -9 -32 -14 -55 l-9 -43 34 -1 c19 -1 39 -2 44 -3 6 -1 9 4 8 9 -2 6 -15 9 -30 7 -20 -2 -28 1 -28 12 0 12 10 16 35 16 19 0 35 5 35 10 0 6 -13 10 -30 10 -20 0 -30 5 -30 15 0 10 11 15 35 15 19 0 35 5 35 10 0 15 -80 12 -85 -2z"/> <path d="M796 194 c-30 -30 -14 -54 36 -54 11 0 18 -5 16 -12 -6 -18 -39 -22 -49 -7 -6 11 -11 11 -20 2 -8 -8 -6 -14 11 -23 28 -15 78 -3 85 21 9 27 -2 39 -36 39 -19 0 -29 5 -29 15 0 17 45 21 55 5 4 -6 11 -8 16 -4 17 10 -12 34 -42 34 -15 0 -35 -7 -43 -16z"/> <path d="M900 201 c0 -5 9 -11 20 -14 17 -4 18 -9 10 -38 -13 -45 -13 -49 5 -49 8 0 14 3 13 8 -1 4 1 24 5 45 6 27 13 37 27 37 11 0 20 5 20 10 0 6 -22 10 -50 10 -27 0 -50 -4 -50 -9z"/> <path d="M1062 194 c-31 -22 -31 -80 1 -95 26 -12 77 3 77 22 0 7 -7 8 -17 4 -40 -17 -58 -11 -58 19 0 39 25 54 59 36 30 -16 45 -7 26 15 -16 19 -59 19 -88 -1z"/> <path d="M1185 158 c-23 -34 -31 -54 -23 -57 7 -2 14 1 16 8 5 15 55 14 70 -1 19 -19 23 -4 11 51 -6 32 -16 51 -25 51 -7 0 -29 -24 -49 -52z m55 -6 c0 -11 -8 -18 -20 -19 -23 -2 -24 1 -9 28 11 22 29 17 29 -9z"/> <path d="M1306 193 c-14 -49 -18 -93 -7 -93 6 0 11 7 11 15 0 10 10 15 30 15 20 0 30 -5 30 -15 0 -8 5 -15 10 -15 6 0 10 9 10 21 0 11 5 30 11 41 9 18 8 24 -7 35 -27 19 -82 17 -88 -4z m72 -26 c3 -13 -4 -17 -27 -17 -29 0 -41 17 -25 33 12 12 49 0 52 -16z"/> <path d="M1430 186 c-4 -12 -11 -35 -14 -52 -7 -32 -7 -32 38 -36 32 -2 46 1 46 9 0 8 -14 13 -36 13 -21 0 -33 4 -29 10 3 6 19 10 35 10 16 0 32 5 35 10 4 6 -8 10 -29 10 -27 0 -34 3 -30 15 4 9 19 15 40 15 19 0 34 4 34 10 0 5 -18 9 -41 8 -31 -1 -43 -6 -49 -22z"/> <path d="M1531 160 c-6 -28 -11 -53 -11 -55 0 -3 20 -5 45 -5 25 0 45 5 45 11 0 6 -14 9 -32 7 -18 -2 -33 2 -35 10 -3 8 7 12 31 12 19 0 38 5 41 10 4 6 -9 10 -30 10 -49 0 -42 24 8 28 52 4 46 22 -7 22 l-44 0 -11 -50z"/> <path d="M1647 194 c-15 -50 -19 -94 -8 -94 6 0 11 7 11 15 0 10 10 15 30 15 21 0 30 -5 30 -16 0 -9 6 -14 13 -11 6 2 11 10 9 18 -2 7 2 23 9 36 16 30 4 43 -49 50 -33 4 -41 2 -45 -13z m71 -26 c-5 -15 -58 -24 -58 -10 0 15 12 22 38 22 14 0 22 -5 20 -12z"/> <path d="M1806 198 c-20 -65 -23 -98 -10 -98 8 0 14 9 14 20 0 16 7 20 35 20 19 0 35 5 35 10 0 6 -14 10 -31 10 -41 0 -33 24 9 28 18 2 32 7 32 13 0 14 -80 11 -84 -3z"/> <path d="M1901 159 c-6 -29 -9 -54 -6 -57 11 -11 24 14 30 61 10 65 -10 62 -24 -4z"/> <path d="M1956 198 c-21 -79 -23 -98 -10 -98 8 0 14 7 14 15 0 10 10 15 31 15 24 0 30 -4 25 -15 -3 -9 0 -15 8 -15 20 0 32 90 14 101 -20 13 -78 11 -82 -3z m74 -34 c0 -9 -11 -14 -30 -14 -36 0 -42 27 -7 32 28 5 37 1 37 -18z"/> <path d="M2088 199 c-32 -18 -22 -47 17 -55 20 -3 34 -11 32 -18 -5 -14 -47 -21 -47 -7 0 6 -7 11 -15 11 -22 0 -18 -17 6 -30 28 -16 77 -3 85 22 7 23 -9 38 -43 38 -12 0 -25 5 -28 10 -10 16 25 25 46 12 24 -15 29 -15 29 2 0 25 -50 34 -82 15z"/> <path d="M2190 200 c0 -5 7 -10 16 -10 12 0 14 -8 8 -45 -8 -59 12 -61 23 -2 7 31 13 42 28 42 10 0 20 6 23 13 2 8 -11 12 -47 12 -28 0 -51 -4 -51 -10z"/> </g> </svg> 